<svg xmlns="http://www.w3.org/2000/svg" viewBox="0 0 1366 633" preserveAspectRatio="xMidYMid" width="1366" height="633" xmlns:xlink="http://www.w3.org/1999/xlink" style="shape-rendering:auto;display:block;background-position-x:0%;background-position-y:0%;background-size:auto;background-origin:padding-box;background-clip:border-box;background:scroll rgb(255, 255, 255) none  repeat;width:1366px;height:633px;;animation:none"><g><linearGradient y2="0" y1="0" x2="1" x1="0" id="lg-o578w6yh81n"><stop offset="0" stop-color="#28a745"></stop>

  
<stop offset="1" stop-color="#28a745"></stop></linearGradient>
<path opacity="0.4" fill="url(#lg-o578w6yh81n)" d="M 0 0 L 0 428.34 Q 136.6 414.5 273.2 394.49 T 546.4 301.81 T 819.6 272.95 T 1092.8 316.35 T 1366 250.84 L 1366 0 Z" style="fill:url('#lg-o578w6yh81n');opacity:0.4;;animation:none"></path>
<path opacity="0.4" fill="url(#lg-o578w6yh81n)" d="M 0 0 L 0 395.746 Q 136.6 387.257 273.2 362.437 T 546.4 316.494 T 819.6 258.658 T 1092.8 206.76 T 1366 207.097 L 1366 0 Z" style="fill:url('#lg-o578w6yh81n');opacity:0.4;;animation:none"></path>
<path opacity="0.4" fill="url(#lg-o578w6yh81n)" d="M 0 0 L 0 405.783 Q 136.6 448.915 273.2 424.695 T 546.4 283.459 T 819.6 309.062 T 1092.8 239.654 T 1366 195.418 L 1366 0 Z" style="fill:url('#lg-o578w6yh81n');opacity:0.4;;animation:none"></path>
<path opacity="0.4" fill="url(#lg-o578w6yh81n)" d="M 0 0 L 0 433.016 Q 136.6 378.595 273.2 353.874 T 546.4 369.709 T 819.6 288.131 T 1092.8 313.835 T 1366 247.141 L 1366 0 Z" style="fill:url('#lg-o578w6yh81n');opacity:0.4;;animation:none"></path>
<path opacity="0.4" fill="url(#lg-o578w6yh81n)" d="M 0 0 L 0 453.183 Q 136.6 391.488 273.2 370.141 T 546.4 311.76 T 819.6 320.314 T 1092.8 201.802 T 1366 158.616 L 1366 0 Z" style="fill:url('#lg-o578w6yh81n');opacity:0.4;;animation:none"></path>
<g></g></g><!-- [ldio] generated by https://loading.io --></svg>